G04 #@! TF.FileFunction,Soldermask,Bot*
%FSLAX46Y46*%
G04 Gerber Fmt 4.6, Leading zero omitted, Abs format (unit mm)*
G04 Created by KiCad (PCBNEW 4.0.2-stable) date 2016-04-27 10:36:02 AM*
%MOMM*%
G01*
G04 APERTURE LIST*
%ADD10C,0.100000*%
%ADD11R,1.727200X2.032000*%
%ADD12O,1.727200X2.032000*%
%ADD13O,1.600000X1.600000*%
%ADD14R,2.032000X2.032000*%
%ADD15O,2.032000X2.032000*%
G04 APERTURE END LIST*
D10*
D11*
X119380000Y-104140000D03*
D12*
X121920000Y-104140000D03*
X124460000Y-104140000D03*
X127000000Y-104140000D03*
X129540000Y-104140000D03*
X132080000Y-104140000D03*
X134620000Y-104140000D03*
X137160000Y-104140000D03*
X139700000Y-104140000D03*
X142240000Y-104140000D03*
X144780000Y-104140000D03*
X147320000Y-104140000D03*
X149860000Y-104140000D03*
X152400000Y-104140000D03*
X154940000Y-104140000D03*
X157480000Y-104140000D03*
X160020000Y-104140000D03*
X162560000Y-104140000D03*
X165100000Y-104140000D03*
X167640000Y-104140000D03*
X170180000Y-104140000D03*
X172720000Y-104140000D03*
X175260000Y-104140000D03*
X177800000Y-104140000D03*
X180340000Y-104140000D03*
D13*
X119380000Y-76200000D03*
X121920000Y-76200000D03*
X124460000Y-76200000D03*
X127000000Y-76200000D03*
X129540000Y-76200000D03*
X132080000Y-76200000D03*
X134620000Y-76200000D03*
X137160000Y-76200000D03*
X139700000Y-76200000D03*
X142240000Y-76200000D03*
X144780000Y-76200000D03*
X147320000Y-76200000D03*
X149860000Y-76200000D03*
X152400000Y-76200000D03*
X154940000Y-76200000D03*
X157480000Y-76200000D03*
X160020000Y-76200000D03*
X162560000Y-76200000D03*
X165100000Y-76200000D03*
X167640000Y-76200000D03*
X167640000Y-60960000D03*
X165100000Y-60960000D03*
X162560000Y-60960000D03*
X160020000Y-60960000D03*
X157480000Y-60960000D03*
X154940000Y-60960000D03*
X152400000Y-60960000D03*
X149860000Y-60960000D03*
X147320000Y-60960000D03*
X144780000Y-60960000D03*
X142240000Y-60960000D03*
X139700000Y-60960000D03*
X137160000Y-60960000D03*
X134620000Y-60960000D03*
X132080000Y-60960000D03*
X129540000Y-60960000D03*
X127000000Y-60960000D03*
X124460000Y-60960000D03*
X121920000Y-60960000D03*
X119380000Y-60960000D03*
X119380000Y-80010000D03*
X121920000Y-80010000D03*
X124460000Y-80010000D03*
X127000000Y-80010000D03*
X129540000Y-80010000D03*
X132080000Y-80010000D03*
X134620000Y-80010000D03*
X137160000Y-80010000D03*
X139700000Y-80010000D03*
X142240000Y-80010000D03*
X144780000Y-80010000D03*
X147320000Y-80010000D03*
X149860000Y-80010000D03*
X152400000Y-80010000D03*
X154940000Y-80010000D03*
X157480000Y-80010000D03*
X160020000Y-80010000D03*
X162560000Y-80010000D03*
X165100000Y-80010000D03*
X167640000Y-80010000D03*
X167640000Y-64770000D03*
X165100000Y-64770000D03*
X162560000Y-64770000D03*
X160020000Y-64770000D03*
X157480000Y-64770000D03*
X154940000Y-64770000D03*
X152400000Y-64770000D03*
X149860000Y-64770000D03*
X147320000Y-64770000D03*
X144780000Y-64770000D03*
X142240000Y-64770000D03*
X139700000Y-64770000D03*
X137160000Y-64770000D03*
X134620000Y-64770000D03*
X132080000Y-64770000D03*
X129540000Y-64770000D03*
X127000000Y-64770000D03*
X124460000Y-64770000D03*
X121920000Y-64770000D03*
X119380000Y-64770000D03*
X119380000Y-99060000D03*
X121920000Y-99060000D03*
X124460000Y-99060000D03*
X127000000Y-99060000D03*
X129540000Y-99060000D03*
X132080000Y-99060000D03*
X134620000Y-99060000D03*
X137160000Y-99060000D03*
X139700000Y-99060000D03*
X142240000Y-99060000D03*
X144780000Y-99060000D03*
X147320000Y-99060000D03*
X147320000Y-83820000D03*
X144780000Y-83820000D03*
X142240000Y-83820000D03*
X139700000Y-83820000D03*
X137160000Y-83820000D03*
X134620000Y-83820000D03*
X132080000Y-83820000D03*
X129540000Y-83820000D03*
X127000000Y-83820000D03*
X124460000Y-83820000D03*
X121920000Y-83820000D03*
X119380000Y-83820000D03*
D14*
X113728500Y-68199000D03*
D15*
X113728500Y-65659000D03*
M02*
