G04 #@! TF.FileFunction,Legend,Top*
%FSLAX46Y46*%
G04 Gerber Fmt 4.6, Leading zero omitted, Abs format (unit mm)*
G04 Created by KiCad (PCBNEW 4.0.2-stable) date 2016-04-27 10:36:02 AM*
%MOMM*%
G01*
G04 APERTURE LIST*
%ADD10C,0.100000*%
%ADD11C,0.300000*%
%ADD12C,0.200000*%
%ADD13C,0.150000*%
G04 APERTURE END LIST*
D10*
D11*
X112851500Y-62483857D02*
X112780071Y-62626714D01*
X112780071Y-62841000D01*
X112851500Y-63055285D01*
X112994357Y-63198143D01*
X113137214Y-63269571D01*
X113422929Y-63341000D01*
X113637214Y-63341000D01*
X113922929Y-63269571D01*
X114065786Y-63198143D01*
X114208643Y-63055285D01*
X114280071Y-62841000D01*
X114280071Y-62698143D01*
X114208643Y-62483857D01*
X114137214Y-62412428D01*
X113637214Y-62412428D01*
X113637214Y-62698143D01*
X114280071Y-61769571D02*
X112780071Y-61769571D01*
X114280071Y-60912428D01*
X112780071Y-60912428D01*
X114280071Y-60198142D02*
X112780071Y-60198142D01*
X112780071Y-59840999D01*
X112851500Y-59626714D01*
X112994357Y-59483856D01*
X113137214Y-59412428D01*
X113422929Y-59340999D01*
X113637214Y-59340999D01*
X113922929Y-59412428D01*
X114065786Y-59483856D01*
X114208643Y-59626714D01*
X114280071Y-59840999D01*
X114280071Y-60198142D01*
D12*
X160020000Y-95250000D02*
X160020000Y-101600000D01*
D11*
X114343571Y-83473928D02*
X112843571Y-83473928D01*
X112843571Y-82902500D01*
X112915000Y-82759642D01*
X112986429Y-82688214D01*
X113129286Y-82616785D01*
X113343571Y-82616785D01*
X113486429Y-82688214D01*
X113557857Y-82759642D01*
X113629286Y-82902500D01*
X113629286Y-83473928D01*
X112843571Y-81688214D02*
X112843571Y-81402500D01*
X112915000Y-81259642D01*
X113057857Y-81116785D01*
X113343571Y-81045357D01*
X113843571Y-81045357D01*
X114129286Y-81116785D01*
X114272143Y-81259642D01*
X114343571Y-81402500D01*
X114343571Y-81688214D01*
X114272143Y-81831071D01*
X114129286Y-81973928D01*
X113843571Y-82045357D01*
X113343571Y-82045357D01*
X113057857Y-81973928D01*
X112915000Y-81831071D01*
X112843571Y-81688214D01*
X112843571Y-80545356D02*
X114343571Y-80188213D01*
X113272143Y-79902499D01*
X114343571Y-79616785D01*
X112843571Y-79259642D01*
X113557857Y-78688213D02*
X113557857Y-78188213D01*
X114343571Y-77973927D02*
X114343571Y-78688213D01*
X112843571Y-78688213D01*
X112843571Y-77973927D01*
X114343571Y-76473927D02*
X113629286Y-76973927D01*
X114343571Y-77331070D02*
X112843571Y-77331070D01*
X112843571Y-76759642D01*
X112915000Y-76616784D01*
X112986429Y-76545356D01*
X113129286Y-76473927D01*
X113343571Y-76473927D01*
X113486429Y-76545356D01*
X113557857Y-76616784D01*
X113629286Y-76759642D01*
X113629286Y-77331070D01*
X113772143Y-74688213D02*
X113772143Y-73545356D01*
X114343571Y-74116785D02*
X113200714Y-74116785D01*
X112843571Y-72116784D02*
X112843571Y-72831070D01*
X113557857Y-72902499D01*
X113486429Y-72831070D01*
X113415000Y-72688213D01*
X113415000Y-72331070D01*
X113486429Y-72188213D01*
X113557857Y-72116784D01*
X113700714Y-72045356D01*
X114057857Y-72045356D01*
X114200714Y-72116784D01*
X114272143Y-72188213D01*
X114343571Y-72331070D01*
X114343571Y-72688213D01*
X114272143Y-72831070D01*
X114200714Y-72902499D01*
X112843571Y-71616785D02*
X114343571Y-71116785D01*
X112843571Y-70616785D01*
X139438573Y-67828571D02*
X139152859Y-67828571D01*
X139010002Y-67900000D01*
X138938573Y-67971429D01*
X138795716Y-68185714D01*
X138724287Y-68471429D01*
X138724287Y-69042857D01*
X138795716Y-69185714D01*
X138867144Y-69257143D01*
X139010002Y-69328571D01*
X139295716Y-69328571D01*
X139438573Y-69257143D01*
X139510002Y-69185714D01*
X139581430Y-69042857D01*
X139581430Y-68685714D01*
X139510002Y-68542857D01*
X139438573Y-68471429D01*
X139295716Y-68400000D01*
X139010002Y-68400000D01*
X138867144Y-68471429D01*
X138795716Y-68542857D01*
X138724287Y-68685714D01*
X140938573Y-67828571D02*
X140224287Y-67828571D01*
X140152858Y-68542857D01*
X140224287Y-68471429D01*
X140367144Y-68400000D01*
X140724287Y-68400000D01*
X140867144Y-68471429D01*
X140938573Y-68542857D01*
X141010001Y-68685714D01*
X141010001Y-69042857D01*
X140938573Y-69185714D01*
X140867144Y-69257143D01*
X140724287Y-69328571D01*
X140367144Y-69328571D01*
X140224287Y-69257143D01*
X140152858Y-69185714D01*
X141581429Y-67971429D02*
X141652858Y-67900000D01*
X141795715Y-67828571D01*
X142152858Y-67828571D01*
X142295715Y-67900000D01*
X142367144Y-67971429D01*
X142438572Y-68114286D01*
X142438572Y-68257143D01*
X142367144Y-68471429D01*
X141510001Y-69328571D01*
X142438572Y-69328571D01*
X143367143Y-67828571D02*
X143510000Y-67828571D01*
X143652857Y-67900000D01*
X143724286Y-67971429D01*
X143795715Y-68114286D01*
X143867143Y-68400000D01*
X143867143Y-68757143D01*
X143795715Y-69042857D01*
X143724286Y-69185714D01*
X143652857Y-69257143D01*
X143510000Y-69328571D01*
X143367143Y-69328571D01*
X143224286Y-69257143D01*
X143152857Y-69185714D01*
X143081429Y-69042857D01*
X143010000Y-68757143D01*
X143010000Y-68400000D01*
X143081429Y-68114286D01*
X143152857Y-67971429D01*
X143224286Y-67900000D01*
X143367143Y-67828571D01*
X145438571Y-67828571D02*
X145938571Y-69328571D01*
X146438571Y-67828571D01*
X146938571Y-69328571D02*
X146938571Y-67828571D01*
X147581428Y-68900000D02*
X148295714Y-68900000D01*
X147438571Y-69328571D02*
X147938571Y-67828571D01*
X148438571Y-69328571D01*
X135117143Y-71728571D02*
X135117143Y-70228571D01*
X135688571Y-70228571D01*
X135831429Y-70300000D01*
X135902857Y-70371429D01*
X135974286Y-70514286D01*
X135974286Y-70728571D01*
X135902857Y-70871429D01*
X135831429Y-70942857D01*
X135688571Y-71014286D01*
X135117143Y-71014286D01*
X136831429Y-71728571D02*
X136688571Y-71657143D01*
X136617143Y-71514286D01*
X136617143Y-70228571D01*
X138045714Y-70728571D02*
X138045714Y-71728571D01*
X137402857Y-70728571D02*
X137402857Y-71514286D01*
X137474285Y-71657143D01*
X137617143Y-71728571D01*
X137831428Y-71728571D01*
X137974285Y-71657143D01*
X138045714Y-71585714D01*
X139402857Y-70728571D02*
X139402857Y-71942857D01*
X139331428Y-72085714D01*
X139260000Y-72157143D01*
X139117143Y-72228571D01*
X138902857Y-72228571D01*
X138760000Y-72157143D01*
X139402857Y-71657143D02*
X139260000Y-71728571D01*
X138974286Y-71728571D01*
X138831428Y-71657143D01*
X138760000Y-71585714D01*
X138688571Y-71442857D01*
X138688571Y-71014286D01*
X138760000Y-70871429D01*
X138831428Y-70800000D01*
X138974286Y-70728571D01*
X139260000Y-70728571D01*
X139402857Y-70800000D01*
X141260000Y-71728571D02*
X141260000Y-70728571D01*
X141260000Y-70228571D02*
X141188571Y-70300000D01*
X141260000Y-70371429D01*
X141331428Y-70300000D01*
X141260000Y-70228571D01*
X141260000Y-70371429D01*
X141974286Y-70728571D02*
X141974286Y-71728571D01*
X141974286Y-70871429D02*
X142045714Y-70800000D01*
X142188572Y-70728571D01*
X142402857Y-70728571D01*
X142545714Y-70800000D01*
X142617143Y-70942857D01*
X142617143Y-71728571D01*
X143117143Y-70728571D02*
X143688572Y-70728571D01*
X143331429Y-70228571D02*
X143331429Y-71514286D01*
X143402857Y-71657143D01*
X143545715Y-71728571D01*
X143688572Y-71728571D01*
X144402858Y-71728571D02*
X144260000Y-71657143D01*
X144188572Y-71585714D01*
X144117143Y-71442857D01*
X144117143Y-71014286D01*
X144188572Y-70871429D01*
X144260000Y-70800000D01*
X144402858Y-70728571D01*
X144617143Y-70728571D01*
X144760000Y-70800000D01*
X144831429Y-70871429D01*
X144902858Y-71014286D01*
X144902858Y-71442857D01*
X144831429Y-71585714D01*
X144760000Y-71657143D01*
X144617143Y-71728571D01*
X144402858Y-71728571D01*
X146688572Y-70228571D02*
X146688572Y-71442857D01*
X146760000Y-71585714D01*
X146831429Y-71657143D01*
X146974286Y-71728571D01*
X147260000Y-71728571D01*
X147402858Y-71657143D01*
X147474286Y-71585714D01*
X147545715Y-71442857D01*
X147545715Y-70228571D01*
X148760001Y-70942857D02*
X148974287Y-71014286D01*
X149045715Y-71085714D01*
X149117144Y-71228571D01*
X149117144Y-71442857D01*
X149045715Y-71585714D01*
X148974287Y-71657143D01*
X148831429Y-71728571D01*
X148260001Y-71728571D01*
X148260001Y-70228571D01*
X148760001Y-70228571D01*
X148902858Y-70300000D01*
X148974287Y-70371429D01*
X149045715Y-70514286D01*
X149045715Y-70657143D01*
X148974287Y-70800000D01*
X148902858Y-70871429D01*
X148760001Y-70942857D01*
X148260001Y-70942857D01*
X150545715Y-71728571D02*
X149688572Y-71728571D01*
X150117144Y-71728571D02*
X150117144Y-70228571D01*
X149974287Y-70442857D01*
X149831429Y-70585714D01*
X149688572Y-70657143D01*
X151117143Y-70371429D02*
X151188572Y-70300000D01*
X151331429Y-70228571D01*
X151688572Y-70228571D01*
X151831429Y-70300000D01*
X151902858Y-70371429D01*
X151974286Y-70514286D01*
X151974286Y-70657143D01*
X151902858Y-70871429D01*
X151045715Y-71728571D01*
X151974286Y-71728571D01*
X123651431Y-90618571D02*
X124651431Y-90618571D01*
X124008574Y-92118571D01*
X125865716Y-91118571D02*
X125865716Y-92118571D01*
X125508573Y-90547143D02*
X125151430Y-91618571D01*
X126080002Y-91618571D01*
X127437144Y-92118571D02*
X126580001Y-92118571D01*
X127008573Y-92118571D02*
X127008573Y-90618571D01*
X126865716Y-90832857D01*
X126722858Y-90975714D01*
X126580001Y-91047143D01*
X128794287Y-90618571D02*
X128080001Y-90618571D01*
X128008572Y-91332857D01*
X128080001Y-91261429D01*
X128222858Y-91190000D01*
X128580001Y-91190000D01*
X128722858Y-91261429D01*
X128794287Y-91332857D01*
X128865715Y-91475714D01*
X128865715Y-91832857D01*
X128794287Y-91975714D01*
X128722858Y-92047143D01*
X128580001Y-92118571D01*
X128222858Y-92118571D01*
X128080001Y-92047143D01*
X128008572Y-91975714D01*
X129580000Y-92118571D02*
X129865715Y-92118571D01*
X130008572Y-92047143D01*
X130080000Y-91975714D01*
X130222858Y-91761429D01*
X130294286Y-91475714D01*
X130294286Y-90904286D01*
X130222858Y-90761429D01*
X130151429Y-90690000D01*
X130008572Y-90618571D01*
X129722858Y-90618571D01*
X129580000Y-90690000D01*
X129508572Y-90761429D01*
X129437143Y-90904286D01*
X129437143Y-91261429D01*
X129508572Y-91404286D01*
X129580000Y-91475714D01*
X129722858Y-91547143D01*
X130008572Y-91547143D01*
X130151429Y-91475714D01*
X130222858Y-91404286D01*
X130294286Y-91261429D01*
X132080000Y-92118571D02*
X132080000Y-90618571D01*
X132437143Y-90618571D01*
X132651428Y-90690000D01*
X132794286Y-90832857D01*
X132865714Y-90975714D01*
X132937143Y-91261429D01*
X132937143Y-91475714D01*
X132865714Y-91761429D01*
X132794286Y-91904286D01*
X132651428Y-92047143D01*
X132437143Y-92118571D01*
X132080000Y-92118571D01*
X134151428Y-92047143D02*
X134008571Y-92118571D01*
X133722857Y-92118571D01*
X133580000Y-92047143D01*
X133508571Y-91904286D01*
X133508571Y-91332857D01*
X133580000Y-91190000D01*
X133722857Y-91118571D01*
X134008571Y-91118571D01*
X134151428Y-91190000D01*
X134222857Y-91332857D01*
X134222857Y-91475714D01*
X133508571Y-91618571D01*
X135508571Y-92047143D02*
X135365714Y-92118571D01*
X135080000Y-92118571D01*
X134937142Y-92047143D01*
X134865714Y-91975714D01*
X134794285Y-91832857D01*
X134794285Y-91404286D01*
X134865714Y-91261429D01*
X134937142Y-91190000D01*
X135080000Y-91118571D01*
X135365714Y-91118571D01*
X135508571Y-91190000D01*
X136365714Y-92118571D02*
X136222856Y-92047143D01*
X136151428Y-91975714D01*
X136079999Y-91832857D01*
X136079999Y-91404286D01*
X136151428Y-91261429D01*
X136222856Y-91190000D01*
X136365714Y-91118571D01*
X136579999Y-91118571D01*
X136722856Y-91190000D01*
X136794285Y-91261429D01*
X136865714Y-91404286D01*
X136865714Y-91832857D01*
X136794285Y-91975714D01*
X136722856Y-92047143D01*
X136579999Y-92118571D01*
X136365714Y-92118571D01*
X138151428Y-92118571D02*
X138151428Y-90618571D01*
X138151428Y-92047143D02*
X138008571Y-92118571D01*
X137722857Y-92118571D01*
X137579999Y-92047143D01*
X137508571Y-91975714D01*
X137437142Y-91832857D01*
X137437142Y-91404286D01*
X137508571Y-91261429D01*
X137579999Y-91190000D01*
X137722857Y-91118571D01*
X138008571Y-91118571D01*
X138151428Y-91190000D01*
X139437142Y-92047143D02*
X139294285Y-92118571D01*
X139008571Y-92118571D01*
X138865714Y-92047143D01*
X138794285Y-91904286D01*
X138794285Y-91332857D01*
X138865714Y-91190000D01*
X139008571Y-91118571D01*
X139294285Y-91118571D01*
X139437142Y-91190000D01*
X139508571Y-91332857D01*
X139508571Y-91475714D01*
X138794285Y-91618571D01*
X140151428Y-92118571D02*
X140151428Y-91118571D01*
X140151428Y-91404286D02*
X140222856Y-91261429D01*
X140294285Y-91190000D01*
X140437142Y-91118571D01*
X140579999Y-91118571D01*
X175708571Y-78747143D02*
X176922857Y-78747143D01*
X177065714Y-78675715D01*
X177137143Y-78604286D01*
X177208571Y-78461429D01*
X177208571Y-78175715D01*
X177137143Y-78032857D01*
X177065714Y-77961429D01*
X176922857Y-77890000D01*
X175708571Y-77890000D01*
X175851429Y-77247143D02*
X175780000Y-77175714D01*
X175708571Y-77032857D01*
X175708571Y-76675714D01*
X175780000Y-76532857D01*
X175851429Y-76461428D01*
X175994286Y-76390000D01*
X176137143Y-76390000D01*
X176351429Y-76461428D01*
X177208571Y-77318571D01*
X177208571Y-76390000D01*
X176637143Y-75747143D02*
X176637143Y-74604286D01*
X177208571Y-73890000D02*
X175708571Y-73890000D01*
X176422857Y-73890000D02*
X176422857Y-73032857D01*
X177208571Y-73032857D02*
X175708571Y-73032857D01*
X176422857Y-72318571D02*
X176422857Y-71818571D01*
X177208571Y-71604285D02*
X177208571Y-72318571D01*
X175708571Y-72318571D01*
X175708571Y-71604285D01*
X176780000Y-71032857D02*
X176780000Y-70318571D01*
X177208571Y-71175714D02*
X175708571Y-70675714D01*
X177208571Y-70175714D01*
X177208571Y-69675714D02*
X175708571Y-69675714D01*
X175708571Y-69318571D01*
X175780000Y-69104286D01*
X175922857Y-68961428D01*
X176065714Y-68890000D01*
X176351429Y-68818571D01*
X176565714Y-68818571D01*
X176851429Y-68890000D01*
X176994286Y-68961428D01*
X177137143Y-69104286D01*
X177208571Y-69318571D01*
X177208571Y-69675714D01*
X176422857Y-68175714D02*
X176422857Y-67675714D01*
X177208571Y-67461428D02*
X177208571Y-68175714D01*
X175708571Y-68175714D01*
X175708571Y-67461428D01*
X177208571Y-65961428D02*
X176494286Y-66461428D01*
X177208571Y-66818571D02*
X175708571Y-66818571D01*
X175708571Y-66247143D01*
X175780000Y-66104285D01*
X175851429Y-66032857D01*
X175994286Y-65961428D01*
X176208571Y-65961428D01*
X176351429Y-66032857D01*
X176422857Y-66104285D01*
X176494286Y-66247143D01*
X176494286Y-66818571D01*
X171898571Y-74901428D02*
X173112857Y-74901428D01*
X173255714Y-74830000D01*
X173327143Y-74758571D01*
X173398571Y-74615714D01*
X173398571Y-74330000D01*
X173327143Y-74187142D01*
X173255714Y-74115714D01*
X173112857Y-74044285D01*
X171898571Y-74044285D01*
X173398571Y-72544285D02*
X173398571Y-73401428D01*
X173398571Y-72972856D02*
X171898571Y-72972856D01*
X172112857Y-73115713D01*
X172255714Y-73258571D01*
X172327143Y-73401428D01*
X172827143Y-71901428D02*
X172827143Y-70758571D01*
X173327143Y-70115714D02*
X173398571Y-69901428D01*
X173398571Y-69544285D01*
X173327143Y-69401428D01*
X173255714Y-69329999D01*
X173112857Y-69258571D01*
X172970000Y-69258571D01*
X172827143Y-69329999D01*
X172755714Y-69401428D01*
X172684286Y-69544285D01*
X172612857Y-69829999D01*
X172541429Y-69972857D01*
X172470000Y-70044285D01*
X172327143Y-70115714D01*
X172184286Y-70115714D01*
X172041429Y-70044285D01*
X171970000Y-69972857D01*
X171898571Y-69829999D01*
X171898571Y-69472857D01*
X171970000Y-69258571D01*
X171898571Y-68330000D02*
X171898571Y-68044286D01*
X171970000Y-67901428D01*
X172112857Y-67758571D01*
X172398571Y-67687143D01*
X172898571Y-67687143D01*
X173184286Y-67758571D01*
X173327143Y-67901428D01*
X173398571Y-68044286D01*
X173398571Y-68330000D01*
X173327143Y-68472857D01*
X173184286Y-68615714D01*
X172898571Y-68687143D01*
X172398571Y-68687143D01*
X172112857Y-68615714D01*
X171970000Y-68472857D01*
X171898571Y-68330000D01*
X173255714Y-66187142D02*
X173327143Y-66258571D01*
X173398571Y-66472857D01*
X173398571Y-66615714D01*
X173327143Y-66829999D01*
X173184286Y-66972857D01*
X173041429Y-67044285D01*
X172755714Y-67115714D01*
X172541429Y-67115714D01*
X172255714Y-67044285D01*
X172112857Y-66972857D01*
X171970000Y-66829999D01*
X171898571Y-66615714D01*
X171898571Y-66472857D01*
X171970000Y-66258571D01*
X172041429Y-66187142D01*
X173398571Y-65544285D02*
X171898571Y-65544285D01*
X173398571Y-64687142D02*
X172541429Y-65329999D01*
X171898571Y-64687142D02*
X172755714Y-65544285D01*
X172612857Y-64044285D02*
X172612857Y-63544285D01*
X173398571Y-63329999D02*
X173398571Y-64044285D01*
X171898571Y-64044285D01*
X171898571Y-63329999D01*
X171898571Y-62901428D02*
X171898571Y-62044285D01*
X173398571Y-62472856D02*
X171898571Y-62472856D01*
D12*
X175260000Y-81280000D02*
X177800000Y-81280000D01*
X175260000Y-63500000D02*
X175260000Y-81280000D01*
X177800000Y-63500000D02*
X175260000Y-63500000D01*
X173990000Y-59690000D02*
X171450000Y-59690000D01*
X173990000Y-77470000D02*
X173990000Y-59690000D01*
X171450000Y-77470000D02*
X173990000Y-77470000D01*
D11*
X178141429Y-100865714D02*
X178070000Y-100937143D01*
X177855714Y-101008571D01*
X177712857Y-101008571D01*
X177498572Y-100937143D01*
X177355714Y-100794286D01*
X177284286Y-100651429D01*
X177212857Y-100365714D01*
X177212857Y-100151429D01*
X177284286Y-99865714D01*
X177355714Y-99722857D01*
X177498572Y-99580000D01*
X177712857Y-99508571D01*
X177855714Y-99508571D01*
X178070000Y-99580000D01*
X178141429Y-99651429D01*
X179070000Y-99508571D02*
X179355714Y-99508571D01*
X179498572Y-99580000D01*
X179641429Y-99722857D01*
X179712857Y-100008571D01*
X179712857Y-100508571D01*
X179641429Y-100794286D01*
X179498572Y-100937143D01*
X179355714Y-101008571D01*
X179070000Y-101008571D01*
X178927143Y-100937143D01*
X178784286Y-100794286D01*
X178712857Y-100508571D01*
X178712857Y-100008571D01*
X178784286Y-99722857D01*
X178927143Y-99580000D01*
X179070000Y-99508571D01*
X181070001Y-101008571D02*
X180355715Y-101008571D01*
X180355715Y-99508571D01*
X153761429Y-101008571D02*
X153261429Y-100294286D01*
X152904286Y-101008571D02*
X152904286Y-99508571D01*
X153475714Y-99508571D01*
X153618572Y-99580000D01*
X153690000Y-99651429D01*
X153761429Y-99794286D01*
X153761429Y-100008571D01*
X153690000Y-100151429D01*
X153618572Y-100222857D01*
X153475714Y-100294286D01*
X152904286Y-100294286D01*
X154690000Y-99508571D02*
X154975714Y-99508571D01*
X155118572Y-99580000D01*
X155261429Y-99722857D01*
X155332857Y-100008571D01*
X155332857Y-100508571D01*
X155261429Y-100794286D01*
X155118572Y-100937143D01*
X154975714Y-101008571D01*
X154690000Y-101008571D01*
X154547143Y-100937143D01*
X154404286Y-100794286D01*
X154332857Y-100508571D01*
X154332857Y-100008571D01*
X154404286Y-99722857D01*
X154547143Y-99580000D01*
X154690000Y-99508571D01*
X155832858Y-99508571D02*
X156190001Y-101008571D01*
X156475715Y-99937143D01*
X156761429Y-101008571D01*
X157118572Y-99508571D01*
D12*
X162560000Y-101600000D02*
X180340000Y-101600000D01*
X157480000Y-101600000D02*
X156210000Y-101600000D01*
X118110000Y-101600000D02*
X157480000Y-101600000D01*
D11*
X161203286Y-85470571D02*
X161203286Y-83970571D01*
X161774714Y-83970571D01*
X161917572Y-84042000D01*
X161989000Y-84113429D01*
X162060429Y-84256286D01*
X162060429Y-84470571D01*
X161989000Y-84613429D01*
X161917572Y-84684857D01*
X161774714Y-84756286D01*
X161203286Y-84756286D01*
X162703286Y-84684857D02*
X163203286Y-84684857D01*
X163417572Y-85470571D02*
X162703286Y-85470571D01*
X162703286Y-83970571D01*
X163417572Y-83970571D01*
X163846143Y-83970571D02*
X164703286Y-83970571D01*
X164274715Y-85470571D02*
X164274715Y-83970571D01*
X166274714Y-83899143D02*
X164989000Y-85827714D01*
X167631858Y-85327714D02*
X167560429Y-85399143D01*
X167346143Y-85470571D01*
X167203286Y-85470571D01*
X166989001Y-85399143D01*
X166846143Y-85256286D01*
X166774715Y-85113429D01*
X166703286Y-84827714D01*
X166703286Y-84613429D01*
X166774715Y-84327714D01*
X166846143Y-84184857D01*
X166989001Y-84042000D01*
X167203286Y-83970571D01*
X167346143Y-83970571D01*
X167560429Y-84042000D01*
X167631858Y-84113429D01*
X168774715Y-84684857D02*
X168989001Y-84756286D01*
X169060429Y-84827714D01*
X169131858Y-84970571D01*
X169131858Y-85184857D01*
X169060429Y-85327714D01*
X168989001Y-85399143D01*
X168846143Y-85470571D01*
X168274715Y-85470571D01*
X168274715Y-83970571D01*
X168774715Y-83970571D01*
X168917572Y-84042000D01*
X168989001Y-84113429D01*
X169060429Y-84256286D01*
X169060429Y-84399143D01*
X168989001Y-84542000D01*
X168917572Y-84613429D01*
X168774715Y-84684857D01*
X168274715Y-84684857D01*
X169774715Y-85470571D02*
X169774715Y-83970571D01*
X170274715Y-85042000D01*
X170774715Y-83970571D01*
X170774715Y-85470571D01*
X154989000Y-87870571D02*
X154989000Y-86370571D01*
X155846143Y-87870571D02*
X155203286Y-87013429D01*
X155846143Y-86370571D02*
X154989000Y-87227714D01*
X157060428Y-87799143D02*
X156917571Y-87870571D01*
X156631857Y-87870571D01*
X156489000Y-87799143D01*
X156417571Y-87656286D01*
X156417571Y-87084857D01*
X156489000Y-86942000D01*
X156631857Y-86870571D01*
X156917571Y-86870571D01*
X157060428Y-86942000D01*
X157131857Y-87084857D01*
X157131857Y-87227714D01*
X156417571Y-87370571D01*
X157631857Y-86870571D02*
X157989000Y-87870571D01*
X158346142Y-86870571D02*
X157989000Y-87870571D01*
X157846142Y-88227714D01*
X157774714Y-88299143D01*
X157631857Y-88370571D01*
X158917571Y-87870571D02*
X158917571Y-86370571D01*
X158917571Y-86942000D02*
X159060428Y-86870571D01*
X159346142Y-86870571D01*
X159488999Y-86942000D01*
X159560428Y-87013429D01*
X159631857Y-87156286D01*
X159631857Y-87584857D01*
X159560428Y-87727714D01*
X159488999Y-87799143D01*
X159346142Y-87870571D01*
X159060428Y-87870571D01*
X158917571Y-87799143D01*
X160489000Y-87870571D02*
X160346142Y-87799143D01*
X160274714Y-87727714D01*
X160203285Y-87584857D01*
X160203285Y-87156286D01*
X160274714Y-87013429D01*
X160346142Y-86942000D01*
X160489000Y-86870571D01*
X160703285Y-86870571D01*
X160846142Y-86942000D01*
X160917571Y-87013429D01*
X160989000Y-87156286D01*
X160989000Y-87584857D01*
X160917571Y-87727714D01*
X160846142Y-87799143D01*
X160703285Y-87870571D01*
X160489000Y-87870571D01*
X162274714Y-87870571D02*
X162274714Y-87084857D01*
X162203285Y-86942000D01*
X162060428Y-86870571D01*
X161774714Y-86870571D01*
X161631857Y-86942000D01*
X162274714Y-87799143D02*
X162131857Y-87870571D01*
X161774714Y-87870571D01*
X161631857Y-87799143D01*
X161560428Y-87656286D01*
X161560428Y-87513429D01*
X161631857Y-87370571D01*
X161774714Y-87299143D01*
X162131857Y-87299143D01*
X162274714Y-87227714D01*
X162989000Y-87870571D02*
X162989000Y-86870571D01*
X162989000Y-87156286D02*
X163060428Y-87013429D01*
X163131857Y-86942000D01*
X163274714Y-86870571D01*
X163417571Y-86870571D01*
X164560428Y-87870571D02*
X164560428Y-86370571D01*
X164560428Y-87799143D02*
X164417571Y-87870571D01*
X164131857Y-87870571D01*
X163988999Y-87799143D01*
X163917571Y-87727714D01*
X163846142Y-87584857D01*
X163846142Y-87156286D01*
X163917571Y-87013429D01*
X163988999Y-86942000D01*
X164131857Y-86870571D01*
X164417571Y-86870571D01*
X164560428Y-86942000D01*
X166417571Y-87084857D02*
X166917571Y-87084857D01*
X167131857Y-87870571D02*
X166417571Y-87870571D01*
X166417571Y-86370571D01*
X167131857Y-86370571D01*
X167631857Y-87870571D02*
X168417571Y-86870571D01*
X167631857Y-86870571D02*
X168417571Y-87870571D01*
X168989000Y-86870571D02*
X168989000Y-88370571D01*
X168989000Y-86942000D02*
X169131857Y-86870571D01*
X169417571Y-86870571D01*
X169560428Y-86942000D01*
X169631857Y-87013429D01*
X169703286Y-87156286D01*
X169703286Y-87584857D01*
X169631857Y-87727714D01*
X169560428Y-87799143D01*
X169417571Y-87870571D01*
X169131857Y-87870571D01*
X168989000Y-87799143D01*
X170989000Y-87870571D02*
X170989000Y-87084857D01*
X170917571Y-86942000D01*
X170774714Y-86870571D01*
X170489000Y-86870571D01*
X170346143Y-86942000D01*
X170989000Y-87799143D02*
X170846143Y-87870571D01*
X170489000Y-87870571D01*
X170346143Y-87799143D01*
X170274714Y-87656286D01*
X170274714Y-87513429D01*
X170346143Y-87370571D01*
X170489000Y-87299143D01*
X170846143Y-87299143D01*
X170989000Y-87227714D01*
X171703286Y-86870571D02*
X171703286Y-87870571D01*
X171703286Y-87013429D02*
X171774714Y-86942000D01*
X171917572Y-86870571D01*
X172131857Y-86870571D01*
X172274714Y-86942000D01*
X172346143Y-87084857D01*
X172346143Y-87870571D01*
X172989000Y-87799143D02*
X173131857Y-87870571D01*
X173417572Y-87870571D01*
X173560429Y-87799143D01*
X173631857Y-87656286D01*
X173631857Y-87584857D01*
X173560429Y-87442000D01*
X173417572Y-87370571D01*
X173203286Y-87370571D01*
X173060429Y-87299143D01*
X172989000Y-87156286D01*
X172989000Y-87084857D01*
X173060429Y-86942000D01*
X173203286Y-86870571D01*
X173417572Y-86870571D01*
X173560429Y-86942000D01*
X174274715Y-87870571D02*
X174274715Y-86870571D01*
X174274715Y-86370571D02*
X174203286Y-86442000D01*
X174274715Y-86513429D01*
X174346143Y-86442000D01*
X174274715Y-86370571D01*
X174274715Y-86513429D01*
X175203287Y-87870571D02*
X175060429Y-87799143D01*
X174989001Y-87727714D01*
X174917572Y-87584857D01*
X174917572Y-87156286D01*
X174989001Y-87013429D01*
X175060429Y-86942000D01*
X175203287Y-86870571D01*
X175417572Y-86870571D01*
X175560429Y-86942000D01*
X175631858Y-87013429D01*
X175703287Y-87156286D01*
X175703287Y-87584857D01*
X175631858Y-87727714D01*
X175560429Y-87799143D01*
X175417572Y-87870571D01*
X175203287Y-87870571D01*
X176346144Y-86870571D02*
X176346144Y-87870571D01*
X176346144Y-87013429D02*
X176417572Y-86942000D01*
X176560430Y-86870571D01*
X176774715Y-86870571D01*
X176917572Y-86942000D01*
X176989001Y-87084857D01*
X176989001Y-87870571D01*
X154060430Y-90842000D02*
X153989002Y-90770571D01*
X153846145Y-90556286D01*
X153774716Y-90413429D01*
X153703287Y-90199143D01*
X153631859Y-89842000D01*
X153631859Y-89556286D01*
X153703287Y-89199143D01*
X153774716Y-88984857D01*
X153846145Y-88842000D01*
X153989002Y-88627714D01*
X154060430Y-88556286D01*
X155489002Y-90127714D02*
X155417573Y-90199143D01*
X155203287Y-90270571D01*
X155060430Y-90270571D01*
X154846145Y-90199143D01*
X154703287Y-90056286D01*
X154631859Y-89913429D01*
X154560430Y-89627714D01*
X154560430Y-89413429D01*
X154631859Y-89127714D01*
X154703287Y-88984857D01*
X154846145Y-88842000D01*
X155060430Y-88770571D01*
X155203287Y-88770571D01*
X155417573Y-88842000D01*
X155489002Y-88913429D01*
X155989002Y-90842000D02*
X156060430Y-90770571D01*
X156203287Y-90556286D01*
X156274716Y-90413429D01*
X156346145Y-90199143D01*
X156417573Y-89842000D01*
X156417573Y-89556286D01*
X156346145Y-89199143D01*
X156274716Y-88984857D01*
X156203287Y-88842000D01*
X156060430Y-88627714D01*
X155989002Y-88556286D01*
X157060430Y-88913429D02*
X157131859Y-88842000D01*
X157274716Y-88770571D01*
X157631859Y-88770571D01*
X157774716Y-88842000D01*
X157846145Y-88913429D01*
X157917573Y-89056286D01*
X157917573Y-89199143D01*
X157846145Y-89413429D01*
X156989002Y-90270571D01*
X157917573Y-90270571D01*
X158846144Y-88770571D02*
X158989001Y-88770571D01*
X159131858Y-88842000D01*
X159203287Y-88913429D01*
X159274716Y-89056286D01*
X159346144Y-89342000D01*
X159346144Y-89699143D01*
X159274716Y-89984857D01*
X159203287Y-90127714D01*
X159131858Y-90199143D01*
X158989001Y-90270571D01*
X158846144Y-90270571D01*
X158703287Y-90199143D01*
X158631858Y-90127714D01*
X158560430Y-89984857D01*
X158489001Y-89699143D01*
X158489001Y-89342000D01*
X158560430Y-89056286D01*
X158631858Y-88913429D01*
X158703287Y-88842000D01*
X158846144Y-88770571D01*
X160774715Y-90270571D02*
X159917572Y-90270571D01*
X160346144Y-90270571D02*
X160346144Y-88770571D01*
X160203287Y-88984857D01*
X160060429Y-89127714D01*
X159917572Y-89199143D01*
X162060429Y-88770571D02*
X161774715Y-88770571D01*
X161631858Y-88842000D01*
X161560429Y-88913429D01*
X161417572Y-89127714D01*
X161346143Y-89413429D01*
X161346143Y-89984857D01*
X161417572Y-90127714D01*
X161489000Y-90199143D01*
X161631858Y-90270571D01*
X161917572Y-90270571D01*
X162060429Y-90199143D01*
X162131858Y-90127714D01*
X162203286Y-89984857D01*
X162203286Y-89627714D01*
X162131858Y-89484857D01*
X162060429Y-89413429D01*
X161917572Y-89342000D01*
X161631858Y-89342000D01*
X161489000Y-89413429D01*
X161417572Y-89484857D01*
X161346143Y-89627714D01*
X163917571Y-90199143D02*
X164131857Y-90270571D01*
X164489000Y-90270571D01*
X164631857Y-90199143D01*
X164703286Y-90127714D01*
X164774714Y-89984857D01*
X164774714Y-89842000D01*
X164703286Y-89699143D01*
X164631857Y-89627714D01*
X164489000Y-89556286D01*
X164203286Y-89484857D01*
X164060428Y-89413429D01*
X163989000Y-89342000D01*
X163917571Y-89199143D01*
X163917571Y-89056286D01*
X163989000Y-88913429D01*
X164060428Y-88842000D01*
X164203286Y-88770571D01*
X164560428Y-88770571D01*
X164774714Y-88842000D01*
X165203285Y-89270571D02*
X165774714Y-89270571D01*
X165417571Y-88770571D02*
X165417571Y-90056286D01*
X165488999Y-90199143D01*
X165631857Y-90270571D01*
X165774714Y-90270571D01*
X166846142Y-90199143D02*
X166703285Y-90270571D01*
X166417571Y-90270571D01*
X166274714Y-90199143D01*
X166203285Y-90056286D01*
X166203285Y-89484857D01*
X166274714Y-89342000D01*
X166417571Y-89270571D01*
X166703285Y-89270571D01*
X166846142Y-89342000D01*
X166917571Y-89484857D01*
X166917571Y-89627714D01*
X166203285Y-89770571D01*
X167417571Y-89270571D02*
X167774714Y-90270571D01*
X168131856Y-89270571D01*
X169274713Y-90199143D02*
X169131856Y-90270571D01*
X168846142Y-90270571D01*
X168703285Y-90199143D01*
X168631856Y-90056286D01*
X168631856Y-89484857D01*
X168703285Y-89342000D01*
X168846142Y-89270571D01*
X169131856Y-89270571D01*
X169274713Y-89342000D01*
X169346142Y-89484857D01*
X169346142Y-89627714D01*
X168631856Y-89770571D01*
X171560427Y-88770571D02*
X171560427Y-89842000D01*
X171488999Y-90056286D01*
X171346142Y-90199143D01*
X171131856Y-90270571D01*
X170988999Y-90270571D01*
X172274713Y-90127714D02*
X172346141Y-90199143D01*
X172274713Y-90270571D01*
X172203284Y-90199143D01*
X172274713Y-90127714D01*
X172274713Y-90270571D01*
X174917570Y-88842000D02*
X174774713Y-88770571D01*
X174560427Y-88770571D01*
X174346142Y-88842000D01*
X174203284Y-88984857D01*
X174131856Y-89127714D01*
X174060427Y-89413429D01*
X174060427Y-89627714D01*
X174131856Y-89913429D01*
X174203284Y-90056286D01*
X174346142Y-90199143D01*
X174560427Y-90270571D01*
X174703284Y-90270571D01*
X174917570Y-90199143D01*
X174988999Y-90127714D01*
X174988999Y-89627714D01*
X174703284Y-89627714D01*
X175631856Y-90270571D02*
X175631856Y-89270571D01*
X175631856Y-89556286D02*
X175703284Y-89413429D01*
X175774713Y-89342000D01*
X175917570Y-89270571D01*
X176060427Y-89270571D01*
X177203284Y-90270571D02*
X177203284Y-89484857D01*
X177131855Y-89342000D01*
X176988998Y-89270571D01*
X176703284Y-89270571D01*
X176560427Y-89342000D01*
X177203284Y-90199143D02*
X177060427Y-90270571D01*
X176703284Y-90270571D01*
X176560427Y-90199143D01*
X176488998Y-90056286D01*
X176488998Y-89913429D01*
X176560427Y-89770571D01*
X176703284Y-89699143D01*
X177060427Y-89699143D01*
X177203284Y-89627714D01*
X177774713Y-89270571D02*
X178131856Y-90270571D01*
X178488998Y-89270571D02*
X178131856Y-90270571D01*
X177988998Y-90627714D01*
X177917570Y-90699143D01*
X177774713Y-90770571D01*
X161667572Y-91170571D02*
X162167572Y-92670571D01*
X162667572Y-91170571D01*
X163739000Y-92599143D02*
X163596143Y-92670571D01*
X163310429Y-92670571D01*
X163167572Y-92599143D01*
X163096143Y-92456286D01*
X163096143Y-91884857D01*
X163167572Y-91742000D01*
X163310429Y-91670571D01*
X163596143Y-91670571D01*
X163739000Y-91742000D01*
X163810429Y-91884857D01*
X163810429Y-92027714D01*
X163096143Y-92170571D01*
X164453286Y-92670571D02*
X164453286Y-91670571D01*
X164453286Y-91956286D02*
X164524714Y-91813429D01*
X164596143Y-91742000D01*
X164739000Y-91670571D01*
X164881857Y-91670571D01*
X165381857Y-92527714D02*
X165453285Y-92599143D01*
X165381857Y-92670571D01*
X165310428Y-92599143D01*
X165381857Y-92527714D01*
X165381857Y-92670571D01*
X165381857Y-91742000D02*
X165453285Y-91813429D01*
X165381857Y-91884857D01*
X165310428Y-91813429D01*
X165381857Y-91742000D01*
X165381857Y-91884857D01*
X168024714Y-92670571D02*
X167167571Y-92670571D01*
X167596143Y-92670571D02*
X167596143Y-91170571D01*
X167453286Y-91384857D01*
X167310428Y-91527714D01*
X167167571Y-91599143D01*
X168667571Y-92527714D02*
X168738999Y-92599143D01*
X168667571Y-92670571D01*
X168596142Y-92599143D01*
X168667571Y-92527714D01*
X168667571Y-92670571D01*
X169667571Y-91170571D02*
X169810428Y-91170571D01*
X169953285Y-91242000D01*
X170024714Y-91313429D01*
X170096143Y-91456286D01*
X170167571Y-91742000D01*
X170167571Y-92099143D01*
X170096143Y-92384857D01*
X170024714Y-92527714D01*
X169953285Y-92599143D01*
X169810428Y-92670571D01*
X169667571Y-92670571D01*
X169524714Y-92599143D01*
X169453285Y-92527714D01*
X169381857Y-92384857D01*
X169310428Y-92099143D01*
X169310428Y-91742000D01*
X169381857Y-91456286D01*
X169453285Y-91313429D01*
X169524714Y-91242000D01*
X169667571Y-91170571D01*
D13*
X120650000Y-105410000D02*
X181610000Y-105410000D01*
X181610000Y-105410000D02*
X181610000Y-102870000D01*
X181610000Y-102870000D02*
X120650000Y-102870000D01*
X117830000Y-102590000D02*
X119380000Y-102590000D01*
X120650000Y-102870000D02*
X120650000Y-105410000D01*
X119380000Y-105690000D02*
X117830000Y-105690000D01*
X117830000Y-105690000D02*
X117830000Y-102590000D01*
X117085000Y-76065000D02*
X118355000Y-76065000D01*
X117085000Y-61095000D02*
X118355000Y-61095000D01*
X169935000Y-61095000D02*
X168665000Y-61095000D01*
X169935000Y-76065000D02*
X168665000Y-76065000D01*
X117085000Y-76065000D02*
X117085000Y-61095000D01*
X169935000Y-76065000D02*
X169935000Y-61095000D01*
X118355000Y-76065000D02*
X118355000Y-77000000D01*
X117085000Y-79875000D02*
X118355000Y-79875000D01*
X117085000Y-64905000D02*
X118355000Y-64905000D01*
X169935000Y-64905000D02*
X168665000Y-64905000D01*
X169935000Y-79875000D02*
X168665000Y-79875000D01*
X117085000Y-79875000D02*
X117085000Y-64905000D01*
X169935000Y-79875000D02*
X169935000Y-64905000D01*
X118355000Y-79875000D02*
X118355000Y-80810000D01*
X117085000Y-98925000D02*
X118355000Y-98925000D01*
X117085000Y-83955000D02*
X118355000Y-83955000D01*
X149615000Y-83955000D02*
X148345000Y-83955000D01*
X149615000Y-98925000D02*
X148345000Y-98925000D01*
X117085000Y-98925000D02*
X117085000Y-83955000D01*
X149615000Y-98925000D02*
X149615000Y-83955000D01*
X118355000Y-98925000D02*
X118355000Y-99860000D01*
X112458500Y-66929000D02*
X112458500Y-64389000D01*
X112178500Y-69749000D02*
X112178500Y-68199000D01*
X112458500Y-66929000D02*
X114998500Y-66929000D01*
X115278500Y-68199000D02*
X115278500Y-69749000D01*
X115278500Y-69749000D02*
X112178500Y-69749000D01*
X114998500Y-66929000D02*
X114998500Y-64389000D01*
X114998500Y-64389000D02*
X112458500Y-64389000D01*
X117038381Y-105005095D02*
X116038381Y-105005095D01*
X116038381Y-104624142D01*
X116086000Y-104528904D01*
X116133619Y-104481285D01*
X116228857Y-104433666D01*
X116371714Y-104433666D01*
X116466952Y-104481285D01*
X116514571Y-104528904D01*
X116562190Y-104624142D01*
X116562190Y-105005095D01*
X117038381Y-103481285D02*
X117038381Y-104052714D01*
X117038381Y-103767000D02*
X116038381Y-103767000D01*
X116181238Y-103862238D01*
X116276476Y-103957476D01*
X116324095Y-104052714D01*
X115593881Y-77152405D02*
X116403405Y-77152405D01*
X116498643Y-77104786D01*
X116546262Y-77057167D01*
X116593881Y-76961929D01*
X116593881Y-76771452D01*
X116546262Y-76676214D01*
X116498643Y-76628595D01*
X116403405Y-76580976D01*
X115593881Y-76580976D01*
X116593881Y-75580976D02*
X116593881Y-76152405D01*
X116593881Y-75866691D02*
X115593881Y-75866691D01*
X115736738Y-75961929D01*
X115831976Y-76057167D01*
X115879595Y-76152405D01*
X115593881Y-80962405D02*
X116403405Y-80962405D01*
X116498643Y-80914786D01*
X116546262Y-80867167D01*
X116593881Y-80771929D01*
X116593881Y-80581452D01*
X116546262Y-80486214D01*
X116498643Y-80438595D01*
X116403405Y-80390976D01*
X115593881Y-80390976D01*
X115689119Y-79962405D02*
X115641500Y-79914786D01*
X115593881Y-79819548D01*
X115593881Y-79581452D01*
X115641500Y-79486214D01*
X115689119Y-79438595D01*
X115784357Y-79390976D01*
X115879595Y-79390976D01*
X116022452Y-79438595D01*
X116593881Y-80010024D01*
X116593881Y-79390976D01*
X115276381Y-97281905D02*
X116085905Y-97281905D01*
X116181143Y-97234286D01*
X116228762Y-97186667D01*
X116276381Y-97091429D01*
X116276381Y-96900952D01*
X116228762Y-96805714D01*
X116181143Y-96758095D01*
X116085905Y-96710476D01*
X115276381Y-96710476D01*
X115276381Y-96329524D02*
X115276381Y-95710476D01*
X115657333Y-96043810D01*
X115657333Y-95900952D01*
X115704952Y-95805714D01*
X115752571Y-95758095D01*
X115847810Y-95710476D01*
X116085905Y-95710476D01*
X116181143Y-95758095D01*
X116228762Y-95805714D01*
X116276381Y-95900952D01*
X116276381Y-96186667D01*
X116228762Y-96281905D01*
X116181143Y-96329524D01*
X118498881Y-68429095D02*
X117498881Y-68429095D01*
X117498881Y-68048142D01*
X117546500Y-67952904D01*
X117594119Y-67905285D01*
X117689357Y-67857666D01*
X117832214Y-67857666D01*
X117927452Y-67905285D01*
X117975071Y-67952904D01*
X118022690Y-68048142D01*
X118022690Y-68429095D01*
X117594119Y-67476714D02*
X117546500Y-67429095D01*
X117498881Y-67333857D01*
X117498881Y-67095761D01*
X117546500Y-67000523D01*
X117594119Y-66952904D01*
X117689357Y-66905285D01*
X117784595Y-66905285D01*
X117927452Y-66952904D01*
X118498881Y-67524333D01*
X118498881Y-66905285D01*
M02*
