G04 #@! TF.FileFunction,Copper,L2,Bot,Signal*
%FSLAX46Y46*%
G04 Gerber Fmt 4.6, Leading zero omitted, Abs format (unit mm)*
G04 Created by KiCad (PCBNEW 4.0.2-stable) date 2016-04-27 10:36:02 AM*
%MOMM*%
G01*
G04 APERTURE LIST*
%ADD10C,0.100000*%
%ADD11R,1.727200X2.032000*%
%ADD12O,1.727200X2.032000*%
%ADD13O,1.600000X1.600000*%
%ADD14R,2.032000X2.032000*%
%ADD15O,2.032000X2.032000*%
%ADD16C,0.600000*%
%ADD17C,0.500000*%
%ADD18C,1.000000*%
G04 APERTURE END LIST*
D10*
D11*
X119380000Y-104140000D03*
D12*
X121920000Y-104140000D03*
X124460000Y-104140000D03*
X127000000Y-104140000D03*
X129540000Y-104140000D03*
X132080000Y-104140000D03*
X134620000Y-104140000D03*
X137160000Y-104140000D03*
X139700000Y-104140000D03*
X142240000Y-104140000D03*
X144780000Y-104140000D03*
X147320000Y-104140000D03*
X149860000Y-104140000D03*
X152400000Y-104140000D03*
X154940000Y-104140000D03*
X157480000Y-104140000D03*
X160020000Y-104140000D03*
X162560000Y-104140000D03*
X165100000Y-104140000D03*
X167640000Y-104140000D03*
X170180000Y-104140000D03*
X172720000Y-104140000D03*
X175260000Y-104140000D03*
X177800000Y-104140000D03*
X180340000Y-104140000D03*
D13*
X119380000Y-76200000D03*
X121920000Y-76200000D03*
X124460000Y-76200000D03*
X127000000Y-76200000D03*
X129540000Y-76200000D03*
X132080000Y-76200000D03*
X134620000Y-76200000D03*
X137160000Y-76200000D03*
X139700000Y-76200000D03*
X142240000Y-76200000D03*
X144780000Y-76200000D03*
X147320000Y-76200000D03*
X149860000Y-76200000D03*
X152400000Y-76200000D03*
X154940000Y-76200000D03*
X157480000Y-76200000D03*
X160020000Y-76200000D03*
X162560000Y-76200000D03*
X165100000Y-76200000D03*
X167640000Y-76200000D03*
X167640000Y-60960000D03*
X165100000Y-60960000D03*
X162560000Y-60960000D03*
X160020000Y-60960000D03*
X157480000Y-60960000D03*
X154940000Y-60960000D03*
X152400000Y-60960000D03*
X149860000Y-60960000D03*
X147320000Y-60960000D03*
X144780000Y-60960000D03*
X142240000Y-60960000D03*
X139700000Y-60960000D03*
X137160000Y-60960000D03*
X134620000Y-60960000D03*
X132080000Y-60960000D03*
X129540000Y-60960000D03*
X127000000Y-60960000D03*
X124460000Y-60960000D03*
X121920000Y-60960000D03*
X119380000Y-60960000D03*
X119380000Y-80010000D03*
X121920000Y-80010000D03*
X124460000Y-80010000D03*
X127000000Y-80010000D03*
X129540000Y-80010000D03*
X132080000Y-80010000D03*
X134620000Y-80010000D03*
X137160000Y-80010000D03*
X139700000Y-80010000D03*
X142240000Y-80010000D03*
X144780000Y-80010000D03*
X147320000Y-80010000D03*
X149860000Y-80010000D03*
X152400000Y-80010000D03*
X154940000Y-80010000D03*
X157480000Y-80010000D03*
X160020000Y-80010000D03*
X162560000Y-80010000D03*
X165100000Y-80010000D03*
X167640000Y-80010000D03*
X167640000Y-64770000D03*
X165100000Y-64770000D03*
X162560000Y-64770000D03*
X160020000Y-64770000D03*
X157480000Y-64770000D03*
X154940000Y-64770000D03*
X152400000Y-64770000D03*
X149860000Y-64770000D03*
X147320000Y-64770000D03*
X144780000Y-64770000D03*
X142240000Y-64770000D03*
X139700000Y-64770000D03*
X137160000Y-64770000D03*
X134620000Y-64770000D03*
X132080000Y-64770000D03*
X129540000Y-64770000D03*
X127000000Y-64770000D03*
X124460000Y-64770000D03*
X121920000Y-64770000D03*
X119380000Y-64770000D03*
X119380000Y-99060000D03*
X121920000Y-99060000D03*
X124460000Y-99060000D03*
X127000000Y-99060000D03*
X129540000Y-99060000D03*
X132080000Y-99060000D03*
X134620000Y-99060000D03*
X137160000Y-99060000D03*
X139700000Y-99060000D03*
X142240000Y-99060000D03*
X144780000Y-99060000D03*
X147320000Y-99060000D03*
X147320000Y-83820000D03*
X144780000Y-83820000D03*
X142240000Y-83820000D03*
X139700000Y-83820000D03*
X137160000Y-83820000D03*
X134620000Y-83820000D03*
X132080000Y-83820000D03*
X129540000Y-83820000D03*
X127000000Y-83820000D03*
X124460000Y-83820000D03*
X121920000Y-83820000D03*
X119380000Y-83820000D03*
D14*
X113728500Y-68199000D03*
D15*
X113728500Y-65659000D03*
D16*
X144780000Y-93980000D03*
X142240000Y-91440000D03*
X139700000Y-90170000D03*
X119380000Y-68580000D03*
D17*
X119380000Y-99060000D02*
X119380000Y-104140000D01*
X121920000Y-99060000D02*
X121920000Y-104140000D01*
X124460000Y-99060000D02*
X124460000Y-104140000D01*
X127000000Y-99060000D02*
X127000000Y-104140000D01*
X129540000Y-99060000D02*
X129540000Y-104140000D01*
X132080000Y-99060000D02*
X132080000Y-104140000D01*
X134620000Y-99060000D02*
X134620000Y-104140000D01*
X137160000Y-99060000D02*
X137160000Y-104140000D01*
X139700000Y-99060000D02*
X139700000Y-104140000D01*
X142240000Y-99060000D02*
X142240000Y-104140000D01*
X144780000Y-99060000D02*
X144780000Y-104140000D01*
X149860000Y-99060000D02*
X149860000Y-104140000D01*
X144780000Y-93980000D02*
X149860000Y-99060000D01*
X152400000Y-104140000D02*
X152400000Y-99060000D01*
X144780000Y-91440000D02*
X142240000Y-91440000D01*
X152400000Y-99060000D02*
X144780000Y-91440000D01*
X154940000Y-104140000D02*
X154940000Y-99060000D01*
X146050000Y-90170000D02*
X139700000Y-90170000D01*
X154940000Y-99060000D02*
X146050000Y-90170000D01*
X157480000Y-104140000D02*
X157480000Y-99060000D01*
X142240000Y-88900000D02*
X137160000Y-83820000D01*
X147320000Y-88900000D02*
X142240000Y-88900000D01*
X157480000Y-99060000D02*
X147320000Y-88900000D01*
X142240000Y-80010000D02*
X142240000Y-81280000D01*
X162560000Y-101600000D02*
X162560000Y-104140000D01*
X148590000Y-87630000D02*
X162560000Y-101600000D01*
X146050000Y-87630000D02*
X148590000Y-87630000D01*
X143510000Y-85090000D02*
X146050000Y-87630000D01*
X143510000Y-82550000D02*
X143510000Y-85090000D01*
X142240000Y-81280000D02*
X143510000Y-82550000D01*
X142240000Y-76200000D02*
X142240000Y-80010000D01*
X144780000Y-80010000D02*
X144780000Y-81280000D01*
X165100000Y-101600000D02*
X165100000Y-104140000D01*
X149860000Y-86360000D02*
X165100000Y-101600000D01*
X147320000Y-86360000D02*
X149860000Y-86360000D01*
X146050000Y-85090000D02*
X147320000Y-86360000D01*
X146050000Y-82550000D02*
X146050000Y-85090000D01*
X144780000Y-81280000D02*
X146050000Y-82550000D01*
X144780000Y-76200000D02*
X144780000Y-80010000D01*
X147320000Y-80010000D02*
X147320000Y-81280000D01*
X167640000Y-101600000D02*
X167640000Y-104140000D01*
X147320000Y-81280000D02*
X167640000Y-101600000D01*
X147320000Y-76200000D02*
X147320000Y-80010000D01*
X149860000Y-80010000D02*
X149860000Y-81280000D01*
X170180000Y-101600000D02*
X170180000Y-104140000D01*
X149860000Y-81280000D02*
X170180000Y-101600000D01*
X149860000Y-76200000D02*
X149860000Y-80010000D01*
X152400000Y-80010000D02*
X152400000Y-81280000D01*
X172720000Y-101600000D02*
X172720000Y-104140000D01*
X152400000Y-81280000D02*
X172720000Y-101600000D01*
X152400000Y-76200000D02*
X152400000Y-80010000D01*
X154940000Y-80010000D02*
X154940000Y-81280000D01*
X175260000Y-101600000D02*
X175260000Y-104140000D01*
X154940000Y-81280000D02*
X175260000Y-101600000D01*
X154940000Y-76200000D02*
X154940000Y-80010000D01*
X157480000Y-80010000D02*
X157480000Y-81280000D01*
X177800000Y-101600000D02*
X177800000Y-104140000D01*
X157480000Y-81280000D02*
X177800000Y-101600000D01*
X157480000Y-76200000D02*
X157480000Y-80010000D01*
X160020000Y-80010000D02*
X160020000Y-81280000D01*
X180340000Y-101600000D02*
X180340000Y-104140000D01*
X160020000Y-81280000D02*
X180340000Y-101600000D01*
X160020000Y-76200000D02*
X160020000Y-80010000D01*
D18*
X147320000Y-99060000D02*
X144780000Y-96520000D01*
X113728500Y-65659000D02*
X116840000Y-65659000D01*
X140970000Y-96520000D02*
X144780000Y-96520000D01*
X134620000Y-90170000D02*
X134620000Y-83820000D01*
X134620000Y-90170000D02*
X140970000Y-96520000D01*
X116840000Y-60960000D02*
X116840000Y-65659000D01*
X116840000Y-65659000D02*
X116840000Y-67310000D01*
X116840000Y-67310000D02*
X118110000Y-68580000D01*
X118110000Y-68580000D02*
X119380000Y-68580000D01*
X134620000Y-83820000D02*
X132080000Y-83820000D01*
X119380000Y-80010000D02*
X119380000Y-81280000D01*
D17*
X119380000Y-81280000D02*
X120650000Y-82550000D01*
X120650000Y-85090000D02*
X121920000Y-86360000D01*
X120650000Y-82550000D02*
X120650000Y-85090000D01*
X121920000Y-86360000D02*
X130810000Y-86360000D01*
X130810000Y-86360000D02*
X132080000Y-85090000D01*
X132080000Y-85090000D02*
X132080000Y-83820000D01*
D18*
X119380000Y-76200000D02*
X119380000Y-80010000D01*
D17*
X121920000Y-80010000D02*
X121920000Y-83820000D01*
X121920000Y-76200000D02*
X121920000Y-80010000D01*
X124460000Y-80010000D02*
X124460000Y-83820000D01*
X124460000Y-76200000D02*
X124460000Y-80010000D01*
X127000000Y-80010000D02*
X127000000Y-83820000D01*
X127000000Y-76200000D02*
X127000000Y-80010000D01*
X129540000Y-80010000D02*
X129540000Y-83820000D01*
X129540000Y-76200000D02*
X129540000Y-80010000D01*
X132080000Y-76200000D02*
X132080000Y-80010000D01*
X134620000Y-76200000D02*
X134620000Y-80010000D01*
X137160000Y-76200000D02*
X137160000Y-80010000D01*
X139700000Y-76200000D02*
X139700000Y-80010000D01*
X162560000Y-76200000D02*
X162560000Y-80010000D01*
X165100000Y-76200000D02*
X165100000Y-80010000D01*
D18*
X116332000Y-71945500D02*
X116522500Y-71945500D01*
X116522500Y-71945500D02*
X117348000Y-71120000D01*
X118046500Y-71120000D02*
X117348000Y-71120000D01*
X117348000Y-71120000D02*
X115506500Y-71120000D01*
X115506500Y-71120000D02*
X114935000Y-70548500D01*
X116840000Y-72453500D02*
X117919500Y-71374000D01*
X118046500Y-71120000D02*
X119380000Y-71120000D01*
X117919500Y-71247000D02*
X118046500Y-71120000D01*
X117919500Y-71374000D02*
X117919500Y-71247000D01*
X116840000Y-73660000D02*
X116840000Y-72453500D01*
X116840000Y-72453500D02*
X116332000Y-71945500D01*
X116332000Y-71945500D02*
X114935000Y-70548500D01*
X114935000Y-70548500D02*
X114109500Y-69723000D01*
X113728500Y-69342000D02*
X113728500Y-68199000D01*
X114109500Y-69723000D02*
X113728500Y-69342000D01*
X167640000Y-76200000D02*
X167640000Y-72390000D01*
X166370000Y-71120000D02*
X119380000Y-71120000D01*
X167640000Y-72390000D02*
X166370000Y-71120000D01*
X119380000Y-71120000D02*
X116840000Y-73660000D01*
X116840000Y-81280000D02*
X119380000Y-83820000D01*
X116840000Y-73660000D02*
X116840000Y-81280000D01*
X167640000Y-76200000D02*
X167640000Y-80010000D01*
D17*
X167640000Y-60960000D02*
X167640000Y-64770000D01*
X165100000Y-60960000D02*
X165100000Y-64770000D01*
X162560000Y-60960000D02*
X162560000Y-64770000D01*
X160020000Y-60960000D02*
X160020000Y-64770000D01*
X157480000Y-60960000D02*
X157480000Y-64770000D01*
X154940000Y-60960000D02*
X154940000Y-64770000D01*
X152400000Y-60960000D02*
X152400000Y-64770000D01*
X149860000Y-60960000D02*
X149860000Y-64770000D01*
X147320000Y-60960000D02*
X147320000Y-64770000D01*
X144780000Y-60960000D02*
X144780000Y-64770000D01*
X142240000Y-60960000D02*
X142240000Y-64770000D01*
X139700000Y-60960000D02*
X139700000Y-64770000D01*
X137160000Y-60960000D02*
X137160000Y-64770000D01*
X134620000Y-60960000D02*
X134620000Y-64770000D01*
X132080000Y-60960000D02*
X132080000Y-64770000D01*
X129540000Y-60960000D02*
X129540000Y-64770000D01*
X127000000Y-60960000D02*
X127000000Y-64770000D01*
X124460000Y-60960000D02*
X124460000Y-64770000D01*
X121920000Y-60960000D02*
X121920000Y-64770000D01*
X119380000Y-60960000D02*
X119380000Y-64770000D01*
M02*
