M48
;DRILL file {KiCad 4.0.2-stable} date 2016-04-27 10:36:07 AM
;FORMAT={-:-/ absolute / inch / decimal}
FMAT,2
INCH,TZ
T1C0.016
T2C0.031
T3C0.040
%
G90
G05
M72
T1
X4.7Y-2.7
X5.5Y-3.55
X5.6Y-3.6
X5.7Y-3.7
T2
X4.7Y-2.4
X4.7Y-2.55
X4.7Y-3.
X4.7Y-3.15
X4.7Y-3.3
X4.7Y-3.9
X4.8Y-2.4
X4.8Y-2.55
X4.8Y-3.
X4.8Y-3.15
X4.8Y-3.3
X4.8Y-3.9
X4.9Y-2.4
X4.9Y-2.55
X4.9Y-3.
X4.9Y-3.15
X4.9Y-3.3
X4.9Y-3.9
X5.Y-2.4
X5.Y-2.55
X5.Y-3.
X5.Y-3.15
X5.Y-3.3
X5.Y-3.9
X5.1Y-2.4
X5.1Y-2.55
X5.1Y-3.
X5.1Y-3.15
X5.1Y-3.3
X5.1Y-3.9
X5.2Y-2.4
X5.2Y-2.55
X5.2Y-3.
X5.2Y-3.15
X5.2Y-3.3
X5.2Y-3.9
X5.3Y-2.4
X5.3Y-2.55
X5.3Y-3.
X5.3Y-3.15
X5.3Y-3.3
X5.3Y-3.9
X5.4Y-2.4
X5.4Y-2.55
X5.4Y-3.
X5.4Y-3.15
X5.4Y-3.3
X5.4Y-3.9
X5.5Y-2.4
X5.5Y-2.55
X5.5Y-3.
X5.5Y-3.15
X5.5Y-3.3
X5.5Y-3.9
X5.6Y-2.4
X5.6Y-2.55
X5.6Y-3.
X5.6Y-3.15
X5.6Y-3.3
X5.6Y-3.9
X5.7Y-2.4
X5.7Y-2.55
X5.7Y-3.
X5.7Y-3.15
X5.7Y-3.3
X5.7Y-3.9
X5.8Y-2.4
X5.8Y-2.55
X5.8Y-3.
X5.8Y-3.15
X5.8Y-3.3
X5.8Y-3.9
X5.9Y-2.4
X5.9Y-2.55
X5.9Y-3.
X5.9Y-3.15
X6.Y-2.4
X6.Y-2.55
X6.Y-3.
X6.Y-3.15
X6.1Y-2.4
X6.1Y-2.55
X6.1Y-3.
X6.1Y-3.15
X6.2Y-2.4
X6.2Y-2.55
X6.2Y-3.
X6.2Y-3.15
X6.3Y-2.4
X6.3Y-2.55
X6.3Y-3.
X6.3Y-3.15
X6.4Y-2.4
X6.4Y-2.55
X6.4Y-3.
X6.4Y-3.15
X6.5Y-2.4
X6.5Y-2.55
X6.5Y-3.
X6.5Y-3.15
X6.6Y-2.4
X6.6Y-2.55
X6.6Y-3.
X6.6Y-3.15
T3
X4.4775Y-2.585
X4.4775Y-2.685
X4.7Y-4.1
X4.8Y-4.1
X4.9Y-4.1
X5.Y-4.1
X5.1Y-4.1
X5.2Y-4.1
X5.3Y-4.1
X5.4Y-4.1
X5.5Y-4.1
X5.6Y-4.1
X5.7Y-4.1
X5.8Y-4.1
X5.9Y-4.1
X6.Y-4.1
X6.1Y-4.1
X6.2Y-4.1
X6.3Y-4.1
X6.4Y-4.1
X6.5Y-4.1
X6.6Y-4.1
X6.7Y-4.1
X6.8Y-4.1
X6.9Y-4.1
X7.Y-4.1
X7.1Y-4.1
T0
M30
